<svg fill="#000000" xmlns="http://www.w3.org/2000/svg"  viewBox="0 0 128 128" width="64px" height="64px"><path d="M19,12h60c1.7,0,3-1.3,3-3s-1.3-3-3-3H19C11.8,6,6,11.8,6,19v90c0,7.2,5.8,13,13,13h50c1.7,0,3-1.3,3-3s-1.3-3-3-3H19c-3.9,0-7-3.1-7-7V19C12,15.1,15.1,12,19,12z"/><path d="M115.8 1.9c-1.2-1.2-3.1-1.2-4.2 0l-2.7 2.7c-.1.1-.3.3-.4.5-.8 1.1-.7 2.7.3 3.7l4.9 5.1c1.1 1.2 1.1 3.1 0 4.2L93.4 38.4c-1.2 1.2-3.1 1.2-4.2 0 0 0 0 0 0 0-1.2-1.2-1.2-3.1 0-4.2l16.1-16.1c1.2-1.2 1.2-3 0-4.2l-.7-.7c-1-1-2.6-1.2-3.8-.4-.2.1-.3.2-.5.4L70 43.4c-.6.6-.9 1.3-.9 2.1 0 .8.3 1.6.9 2.1l3.7 3.7 1.9 1.9c1 1 1.3 2.7.5 3.9-1.1 1.6-3.3 1.8-4.6.5L70 56l-4.1-4.1c-.7-.7-1.7-1-2.7-.8-1 .2-1.8.9-2.2 1.8l-7 16.9c-.5 1.1-.2 2.5.6 3.4l0 0c.8.9 2.1 1.1 3.2.7l17-7.2c0 0 0 0 0 0 .3-.1.7-.4 1-.6l8.5-8.5 41.6-41.5c.6-.6.9-1.3.9-2.1 0-.8-.3-1.6-.9-2.1L115.8 1.9zM89 122c.8 0 1.5-.3 2.1-.9l30-30c.6-.6.9-1.3.9-2.1h0V39c0-1.7-1.3-3-3-3s-3 1.3-3 3v47H99c-7.2 0-13 5.8-13 13v20c0 1.2.7 2.3 1.9 2.8C88.2 121.9 88.6 122 89 122zM92 99c0-3.9 3.1-7 7-7h12.8L92 111.8V99z"/></svg>