<svg width="40" height="40" viewBox="0 0 30 30" fill="#f4e9c9" xmlns="http://www.w3.org/2000/svg">
<path d="M26.6831 14.7595L26.6831 14.8948L25.3829 28.0405C25.3528 28.3863 25.1724 28.7095 24.9018 28.935C24.6237 29.1604 24.2705 29.2582 23.9247 29.2206L2.70657 27.101C2.03763 27.0334 1.52653 26.4621 1.52653 25.7857L1.52653 25.6579L2.84186 12.5196C2.91702 11.7906 3.56341 11.2644 4.28497 11.3321L25.4956 13.4516C26.1645 13.5193 26.6756 14.083 26.6756 14.7595L26.6831 14.7595ZM27.4498 14.7595C27.4498 13.6847 26.6381 12.7902 25.5708 12.685L4.36764 10.573C3.81145 10.5128 3.25525 10.6707 2.81931 11.0239C2.38338 11.3772 2.11279 11.8883 2.05266 12.4445L0.752367 25.5752L0.752367 25.7782C0.752367 26.853 1.56411 27.7549 2.63141 27.8601L23.842 29.9947C24.3982 30.0549 24.9544 29.8895 25.3904 29.5363C25.8263 29.1905 26.0969 28.6794 26.157 28.1232L27.4423 14.9774L27.4498 14.7595Z" fill="#8C0E03"/>
<path d="M2.35334 7.93477C2.35334 7.14557 2.89451 6.4616 3.65364 6.28122L24.3457 1.17774C24.7816 1.06499 25.2476 1.14016 25.6384 1.37316C26.0218 1.60616 26.2999 1.98948 26.4051 2.43294L29.5619 15.248C29.5919 15.3758 29.6145 15.5186 29.607 15.6539C29.607 16.4356 29.0733 17.1195 28.3067 17.3074L7.61466 22.4034C6.69769 22.6289 5.78072 22.0652 5.54772 21.1557L2.39844 8.34064C2.36838 8.20535 2.35334 8.07006 2.35334 7.93477Z" fill="#F4E9C9"/>
<path d="M29.2311 15.6539C29.2236 16.2476 28.8102 16.7663 28.2315 16.9091L7.53948 22.005C6.83296 22.1779 6.11893 21.7495 5.94605 21.043L2.78926 8.2279C2.61639 7.52138 3.04481 6.80734 3.75133 6.63447L24.4358 1.55354C25.1423 1.38067 25.8639 1.80909 26.0368 2.51561L29.1936 15.3683C29.2161 15.4585 29.2311 15.5562 29.2311 15.6539ZM30.0053 15.6539C30.0053 15.481 29.9828 15.3156 29.9377 15.1503L26.7884 2.33522C26.6531 1.80157 26.3149 1.33557 25.8414 1.04244C25.3678 0.756825 24.7966 0.666631 24.263 0.801923L3.56343 5.89788C3.02226 6.03318 2.55626 6.3714 2.27065 6.84492C1.98503 7.31844 1.89484 7.88967 2.02261 8.42332L5.1794 21.2384C5.30718 21.7795 5.65292 22.2456 6.12644 22.5387C6.59996 22.8243 7.16367 22.9145 7.70484 22.7792L28.4119 17.6757C29.3439 17.4502 29.9978 16.6159 30.0053 15.6539Z" fill="#8C0E03"/>
</svg>
